<?xml version="1.0" standalone="no"?>
<!DOCTYPE svg PUBLIC "-//W3C//DTD SVG 20010904//EN"
 "http://www.w3.org/TR/2001/REC-SVG-20010904/DTD/svg10.dtd">
<svg version="1.0" xmlns="http://www.w3.org/2000/svg"
 width="255.000000pt" height="255.000000pt" viewBox="0 0 255.000000 255.000000"
 preserveAspectRatio="xMidYMid meet">

<g transform="translate(0.000000,255.000000) scale(0.100000,-0.100000)"
fill="#000000" stroke="none">
<path d="M1156 2379 c-214 -23 -445 -121 -586 -250 -55 -50 -40 -43 59 29 401
287 931 280 1328 -20 29 -23 56 -38 59 -35 11 11 -161 129 -250 172 -123 58
-233 91 -349 104 -107 12 -146 12 -261 0z"/>
<path d="M1062 2299 c-416 -87 -739 -417 -818 -836 -23 -122 -15 -345 16 -458
128 -469 538 -785 1020 -785 480 0 892 320 1018 789 22 85 25 115 25 261 0
146 -3 176 -26 262 -107 403 -431 702 -836 773 -116 21 -285 18 -399 -6z m418
-140 c387 -95 666 -424 706 -832 l7 -71 -37 -31 c-32 -27 -39 -40 -52 -105
-66 -322 -333 -588 -656 -654 -95 -20 -261 -20 -348 -2 -206 44 -397 167 -516
333 -53 73 -118 208 -134 278 -20 84 -17 82 -64 36 l-43 -42 -7 47 c-11 82 -7
250 9 321 42 200 138 371 283 504 230 210 549 292 852 218z m801 -979 c-26
-251 -122 -453 -295 -624 -307 -303 -780 -373 -1163 -171 -139 74 -281 199
-352 310 -48 76 -37 73 34 -9 286 -327 754 -435 1160 -265 220 91 425 292 526
515 37 80 74 220 85 319 4 39 10 61 12 51 2 -11 -1 -67 -7 -126z"/>
<path d="M1328 1970 c2 -17 10 -30 18 -30 9 0 14 11 14 30 0 22 -5 30 -18 30
-15 0 -18 -6 -14 -30z"/>
<path d="M1570 1734 c-25 -47 -48 -88 -52 -90 -3 -2 -39 11 -80 30 -128 60
-118 66 -118 -72 0 -106 2 -120 18 -124 16 -4 17 4 14 104 -2 59 -1 108 2 108
14 0 139 -51 159 -65 12 -8 26 -15 32 -15 6 0 33 43 60 95 42 81 48 97 35 105
-8 5 -17 10 -20 10 -3 0 -25 -39 -50 -86z"/>
<path d="M1115 1713 c-16 -9 -35 -23 -42 -32 -16 -21 -16 -92 1 -113 19 -25
23 -22 18 11 -5 35 21 87 48 96 13 4 20 15 20 31 0 28 -5 29 -45 7z"/>
<path d="M955 1330 c17 -19 133 -75 178 -85 20 -5 27 -3 27 7 0 10 -19 19 -52
27 -29 6 -79 24 -111 40 -39 19 -52 22 -42 11z"/>
<path d="M1651 1260 c17 -44 20 -71 17 -135 -5 -96 -35 -162 -98 -219 -47 -43
-144 -91 -199 -101 l-36 -6 0 -82 0 -82 -87 -3 -88 -3 0 80 c0 88 4 83 -79 96
-98 16 -301 103 -301 130 0 6 7 20 15 31 8 10 15 22 15 27 0 4 -63 7 -141 7
l-140 0 6 -22 c13 -42 67 -132 116 -193 104 -129 247 -221 419 -271 49 -14 98
-18 200 -18 159 -1 219 13 359 80 75 37 110 62 179 128 l85 82 -54 22 -55 23
-27 89 c-15 50 -33 90 -40 90 -8 0 -12 25 -13 88 0 88 -17 146 -58 197 -11 15
-10 6 5 -35z"/>
<path d="M1320 1143 c0 -104 6 -134 26 -126 10 4 14 26 14 89 0 46 3 84 6 84
3 0 14 -5 25 -10 10 -6 19 -7 19 -2 0 8 -71 52 -84 52 -3 0 -6 -39 -6 -87z"/>
<path d="M2088 2197 l42 -43 -37 -36 -37 -37 51 -58 c28 -33 72 -90 99 -128
26 -39 51 -74 56 -80 5 -5 25 7 51 30 l42 40 -43 -46 -43 -46 27 -62 27 -62
43 42 43 43 21 -47 c54 -121 85 -319 77 -487 -14 -320 -133 -586 -375 -842
-55 -59 -65 -73 -35 -50 23 18 71 65 108 104 232 251 351 609 317 956 -16 160
-51 284 -122 428 -69 143 -151 255 -256 353 -82 77 -125 98 -56 28z"/>
<path d="M260 1993 c-256 -346 -304 -846 -119 -1242 43 -91 134 -234 170 -266
27 -24 22 -15 -49 89 -70 102 -125 218 -161 341 -45 151 -54 217 -54 365 1
246 71 471 212 685 64 97 63 95 56 95 -3 0 -28 -30 -55 -67z"/>
<path d="M442 447 c-18 -18 -32 -38 -32 -43 0 -20 160 -148 234 -186 l38 -20
42 39 41 38 -39 -42 -39 -42 34 -20 c18 -11 47 -23 63 -27 27 -6 35 -2 66 34
l36 40 95 -24 c261 -68 519 -49 752 55 75 34 200 112 213 133 5 7 -5 5 -21 -6
-195 -129 -379 -191 -596 -203 -198 -10 -395 35 -576 133 -49 26 -108 58 -133
71 -25 14 -66 42 -92 64 -26 21 -48 39 -50 39 -2 0 -18 -15 -36 -33z"/>
</g>
</svg>
